<?xml version="1.0" encoding="UTF-8" ?>
<!DOCTYPE svg PUBLIC "-//W3C//DTD SVG 1.1//EN" "http://www.w3.org/Graphics/SVG/1.1/DTD/svg11.dtd">
<svg width="1376pt" height="768pt" viewBox="0 0 1376 768" version="1.1" xmlns="http://www.w3.org/2000/svg">
<g id="#fdfefdff">
</g>
<g id="#000000ff">
<path fill="#000000" opacity="1.00" d=" M 254.46 310.42 C 286.22 281.62 336.26 276.32 373.97 296.17 C 388.38 303.74 400.20 315.50 408.96 329.13 C 401.36 333.79 393.81 338.54 386.10 343.01 C 376.79 327.78 361.52 316.27 344.21 311.81 C 329.74 307.94 314.17 308.55 299.93 313.08 C 282.45 318.81 267.19 331.41 258.79 347.83 C 250.76 362.93 248.69 380.74 251.25 397.52 C 254.00 414.63 262.88 430.70 276.32 441.71 C 303.11 464.50 346.46 464.38 372.97 441.17 C 378.09 436.77 382.44 431.53 386.19 425.92 C 389.82 427.27 393.05 429.46 396.42 431.34 C 400.60 433.87 405.12 435.84 409.12 438.68 C 401.60 450.96 391.15 461.37 379.03 469.11 C 363.46 478.65 345.23 483.57 326.99 483.69 C 310.52 483.99 293.85 481.00 278.89 473.98 C 262.34 466.37 248.00 453.96 238.22 438.58 C 225.91 419.66 221.10 396.34 223.31 374.00 C 225.22 349.88 236.40 326.59 254.46 310.42 Z" />
<path fill="#000000" opacity="1.00" d=" M 541.49 285.77 C 560.53 282.87 580.40 284.57 598.38 291.62 C 613.41 297.12 626.83 306.64 637.48 318.53 C 649.89 332.65 658.10 350.46 660.59 369.11 C 663.85 390.49 659.94 412.85 649.86 431.96 C 642.47 445.84 631.41 457.62 618.46 466.47 C 586.08 488.00 541.92 489.23 507.72 471.18 C 493.73 463.53 481.67 452.48 472.66 439.34 C 451.48 407.60 450.87 363.49 471.14 331.16 C 486.32 306.53 513.07 290.09 541.49 285.77 M 548.68 309.88 C 528.62 312.40 509.42 323.20 497.91 339.98 C 487.93 353.40 483.55 370.43 484.18 387.02 C 484.56 404.76 491.78 422.15 503.79 435.17 C 514.67 446.71 529.28 454.72 544.94 457.40 C 564.64 460.75 586.03 457.39 602.45 445.55 C 614.59 437.23 624.06 425.12 629.17 411.32 C 635.94 393.25 635.45 372.65 628.28 354.78 C 621.54 337.61 607.68 323.57 590.90 316.05 C 577.81 309.90 562.95 308.26 548.68 309.88 Z" />
<path fill="#000000" opacity="1.00" d=" M 1024.35 292.27 C 1032.98 286.41 1043.86 284.76 1054.07 286.01 C 1063.03 287.11 1071.93 291.16 1077.61 298.36 C 1082.47 304.18 1085.14 311.39 1087.75 318.42 C 1109.56 372.54 1131.42 426.64 1153.61 480.61 C 1143.72 480.77 1133.81 480.73 1123.92 480.70 C 1102.89 428.60 1082.62 376.20 1062.29 323.83 C 1060.64 319.77 1059.25 315.12 1055.47 312.50 C 1051.52 310.15 1046.51 309.80 1042.17 311.11 C 1038.28 312.24 1035.77 315.78 1034.26 319.34 C 1013.26 373.14 992.26 426.94 971.12 480.69 C 961.39 480.65 951.66 480.76 941.93 480.66 C 964.63 424.41 987.33 368.15 1009.97 311.87 C 1013.02 304.29 1017.25 296.75 1024.35 292.27 Z" />
<path fill="#000000" opacity="1.00" d=" M 723.54 287.45 C 750.55 287.51 777.57 287.38 804.59 287.52 C 826.77 287.66 849.41 293.28 867.59 306.39 C 881.76 316.09 892.33 330.47 898.50 346.41 C 910.78 378.83 906.66 418.16 884.46 445.40 C 873.96 457.84 860.23 467.63 844.90 473.17 C 831.56 478.20 817.27 480.81 803.01 480.61 C 776.52 480.64 750.02 480.70 723.52 480.65 C 723.57 416.25 723.54 351.85 723.54 287.45 M 750.66 312.53 C 750.65 360.17 750.63 407.81 750.68 455.45 C 769.79 455.46 788.90 455.49 808.01 455.39 C 829.05 454.56 850.37 445.26 863.24 428.22 C 884.53 400.11 881.95 356.20 856.38 331.59 C 842.86 319.05 824.36 312.61 806.04 312.46 C 787.58 312.46 769.12 312.43 750.66 312.53 Z" />
</g>
</svg>
